<svg width="120" height="120" viewBox="0 0 120 120" fill="none" xmlns="http://www.w3.org/2000/svg">
  <!-- Background circle -->
  <circle cx="60" cy="60" r="58" fill="#000000" stroke="#FDF001" stroke-width="3"/>
  
  <!-- Letter C -->
  <path d="M 35 40 C 35 35, 38 32, 43 32 L 52 32 C 57 32, 60 35, 60 40 L 60 48 L 52 48 L 52 42 L 43 42 L 43 78 L 52 78 L 52 72 L 60 72 L 60 80 C 60 85, 57 88, 52 88 L 43 88 C 38 88, 35 85, 35 80 Z" fill="#FDF001"/>
  
  <!-- Letter T -->
  <path d="M 65 32 L 95 32 L 95 42 L 85 42 L 85 88 L 75 88 L 75 42 L 65 42 Z" fill="#FFFFFF"/>
  
  <!-- Accent line (speed effect) -->
  <line x1="20" y1="100" x2="45" y2="100" stroke="#FDF001" stroke-width="3" stroke-linecap="round"/>
  <line x1="25" y1="106" x2="40" y2="106" stroke="#FDF001" stroke-width="2" stroke-linecap="round" opacity="0.6"/>
</svg>